<mxfile host="app.diagrams.net" modified="2023-08-28T23:40:10.975Z" agent="Mozilla/5.0 (Windows NT 10.0; Win64; x64) AppleWebKit/537.36 (KHTML, like Gecko) Chrome/116.0.0.0 Safari/537.36" etag="L5zqJP07P_bSRuS9KMwx" version="21.6.9" type="github">
  <diagram id="R2lEEEUBdFMjLlhIrx00" name="Page-1">
    <mxGraphModel dx="2834" dy="663" grid="1" gridSize="10" guides="1" tooltips="1" connect="1" arrows="1" fold="1" page="1" pageScale="1" pageWidth="850" pageHeight="1100" math="0" shadow="0" extFonts="Permanent Marker^https://fonts.googleapis.com/css?family=Permanent+Marker">
      <root>
        <mxCell id="0" />
        <mxCell id="1" parent="0" />
        <mxCell id="C-vyLk0tnHw3VtMMgP7b-2" value="Roles" style="shape=table;startSize=30;container=1;collapsible=1;childLayout=tableLayout;fixedRows=1;rowLines=0;fontStyle=1;align=center;resizeLast=1;" parent="1" vertex="1">
          <mxGeometry x="550" y="120" width="250" height="100" as="geometry" />
        </mxCell>
        <mxCell id="C-vyLk0tnHw3VtMMgP7b-3" value="" style="shape=partialRectangle;collapsible=0;dropTarget=0;pointerEvents=0;fillColor=none;points=[[0,0.5],[1,0.5]];portConstraint=eastwest;top=0;left=0;right=0;bottom=1;" parent="C-vyLk0tnHw3VtMMgP7b-2" vertex="1">
          <mxGeometry y="30" width="250" height="30" as="geometry" />
        </mxCell>
        <mxCell id="C-vyLk0tnHw3VtMMgP7b-4" value="PK" style="shape=partialRectangle;overflow=hidden;connectable=0;fillColor=none;top=0;left=0;bottom=0;right=0;fontStyle=1;" parent="C-vyLk0tnHw3VtMMgP7b-3" vertex="1">
          <mxGeometry width="30" height="30" as="geometry">
            <mxRectangle width="30" height="30" as="alternateBounds" />
          </mxGeometry>
        </mxCell>
        <mxCell id="C-vyLk0tnHw3VtMMgP7b-5" value="ID INTEGER NOT NULL " style="shape=partialRectangle;overflow=hidden;connectable=0;fillColor=none;top=0;left=0;bottom=0;right=0;align=left;spacingLeft=6;fontStyle=5;" parent="C-vyLk0tnHw3VtMMgP7b-3" vertex="1">
          <mxGeometry x="30" width="220" height="30" as="geometry">
            <mxRectangle width="220" height="30" as="alternateBounds" />
          </mxGeometry>
        </mxCell>
        <mxCell id="C-vyLk0tnHw3VtMMgP7b-9" value="" style="shape=partialRectangle;collapsible=0;dropTarget=0;pointerEvents=0;fillColor=none;points=[[0,0.5],[1,0.5]];portConstraint=eastwest;top=0;left=0;right=0;bottom=0;" parent="C-vyLk0tnHw3VtMMgP7b-2" vertex="1">
          <mxGeometry y="60" width="250" height="30" as="geometry" />
        </mxCell>
        <mxCell id="C-vyLk0tnHw3VtMMgP7b-10" value="" style="shape=partialRectangle;overflow=hidden;connectable=0;fillColor=none;top=0;left=0;bottom=0;right=0;" parent="C-vyLk0tnHw3VtMMgP7b-9" vertex="1">
          <mxGeometry width="30" height="30" as="geometry">
            <mxRectangle width="30" height="30" as="alternateBounds" />
          </mxGeometry>
        </mxCell>
        <mxCell id="C-vyLk0tnHw3VtMMgP7b-11" value="nombre VARCHAR(50) NOT NULL" style="shape=partialRectangle;overflow=hidden;connectable=0;fillColor=none;top=0;left=0;bottom=0;right=0;align=left;spacingLeft=6;" parent="C-vyLk0tnHw3VtMMgP7b-9" vertex="1">
          <mxGeometry x="30" width="220" height="30" as="geometry">
            <mxRectangle width="220" height="30" as="alternateBounds" />
          </mxGeometry>
        </mxCell>
        <mxCell id="C-vyLk0tnHw3VtMMgP7b-13" value="Estados" style="shape=table;startSize=30;container=1;collapsible=1;childLayout=tableLayout;fixedRows=1;rowLines=0;fontStyle=1;align=center;resizeLast=1;" parent="1" vertex="1">
          <mxGeometry x="560" y="290" width="250" height="100" as="geometry" />
        </mxCell>
        <mxCell id="C-vyLk0tnHw3VtMMgP7b-14" value="" style="shape=partialRectangle;collapsible=0;dropTarget=0;pointerEvents=0;fillColor=none;points=[[0,0.5],[1,0.5]];portConstraint=eastwest;top=0;left=0;right=0;bottom=1;" parent="C-vyLk0tnHw3VtMMgP7b-13" vertex="1">
          <mxGeometry y="30" width="250" height="30" as="geometry" />
        </mxCell>
        <mxCell id="C-vyLk0tnHw3VtMMgP7b-15" value="PK" style="shape=partialRectangle;overflow=hidden;connectable=0;fillColor=none;top=0;left=0;bottom=0;right=0;fontStyle=1;" parent="C-vyLk0tnHw3VtMMgP7b-14" vertex="1">
          <mxGeometry width="30" height="30" as="geometry">
            <mxRectangle width="30" height="30" as="alternateBounds" />
          </mxGeometry>
        </mxCell>
        <mxCell id="C-vyLk0tnHw3VtMMgP7b-16" value="ID INTEGER NOT NULL" style="shape=partialRectangle;overflow=hidden;connectable=0;fillColor=none;top=0;left=0;bottom=0;right=0;align=left;spacingLeft=6;fontStyle=5;" parent="C-vyLk0tnHw3VtMMgP7b-14" vertex="1">
          <mxGeometry x="30" width="220" height="30" as="geometry">
            <mxRectangle width="220" height="30" as="alternateBounds" />
          </mxGeometry>
        </mxCell>
        <mxCell id="C-vyLk0tnHw3VtMMgP7b-20" value="" style="shape=partialRectangle;collapsible=0;dropTarget=0;pointerEvents=0;fillColor=none;points=[[0,0.5],[1,0.5]];portConstraint=eastwest;top=0;left=0;right=0;bottom=0;" parent="C-vyLk0tnHw3VtMMgP7b-13" vertex="1">
          <mxGeometry y="60" width="250" height="30" as="geometry" />
        </mxCell>
        <mxCell id="C-vyLk0tnHw3VtMMgP7b-21" value="" style="shape=partialRectangle;overflow=hidden;connectable=0;fillColor=none;top=0;left=0;bottom=0;right=0;" parent="C-vyLk0tnHw3VtMMgP7b-20" vertex="1">
          <mxGeometry width="30" height="30" as="geometry">
            <mxRectangle width="30" height="30" as="alternateBounds" />
          </mxGeometry>
        </mxCell>
        <mxCell id="C-vyLk0tnHw3VtMMgP7b-22" value="nombre VARCHAR(50) NOT NULL" style="shape=partialRectangle;overflow=hidden;connectable=0;fillColor=none;top=0;left=0;bottom=0;right=0;align=left;spacingLeft=6;" parent="C-vyLk0tnHw3VtMMgP7b-20" vertex="1">
          <mxGeometry x="30" width="220" height="30" as="geometry">
            <mxRectangle width="220" height="30" as="alternateBounds" />
          </mxGeometry>
        </mxCell>
        <mxCell id="C-vyLk0tnHw3VtMMgP7b-23" value="Usuarios" style="shape=table;startSize=30;container=1;collapsible=1;childLayout=tableLayout;fixedRows=1;rowLines=0;fontStyle=1;align=center;resizeLast=1;" parent="1" vertex="1">
          <mxGeometry x="170" y="120" width="259" height="300" as="geometry" />
        </mxCell>
        <mxCell id="C-vyLk0tnHw3VtMMgP7b-24" value="" style="shape=partialRectangle;collapsible=0;dropTarget=0;pointerEvents=0;fillColor=none;points=[[0,0.5],[1,0.5]];portConstraint=eastwest;top=0;left=0;right=0;bottom=1;" parent="C-vyLk0tnHw3VtMMgP7b-23" vertex="1">
          <mxGeometry y="30" width="259" height="30" as="geometry" />
        </mxCell>
        <mxCell id="C-vyLk0tnHw3VtMMgP7b-25" value="PK" style="shape=partialRectangle;overflow=hidden;connectable=0;fillColor=none;top=0;left=0;bottom=0;right=0;fontStyle=1;" parent="C-vyLk0tnHw3VtMMgP7b-24" vertex="1">
          <mxGeometry width="30" height="30" as="geometry">
            <mxRectangle width="30" height="30" as="alternateBounds" />
          </mxGeometry>
        </mxCell>
        <mxCell id="C-vyLk0tnHw3VtMMgP7b-26" value="ID INTEGER NOT NULL " style="shape=partialRectangle;overflow=hidden;connectable=0;fillColor=none;top=0;left=0;bottom=0;right=0;align=left;spacingLeft=6;fontStyle=5;" parent="C-vyLk0tnHw3VtMMgP7b-24" vertex="1">
          <mxGeometry x="30" width="229" height="30" as="geometry">
            <mxRectangle width="229" height="30" as="alternateBounds" />
          </mxGeometry>
        </mxCell>
        <mxCell id="C-vyLk0tnHw3VtMMgP7b-27" value="" style="shape=partialRectangle;collapsible=0;dropTarget=0;pointerEvents=0;fillColor=none;points=[[0,0.5],[1,0.5]];portConstraint=eastwest;top=0;left=0;right=0;bottom=0;" parent="C-vyLk0tnHw3VtMMgP7b-23" vertex="1">
          <mxGeometry y="60" width="259" height="30" as="geometry" />
        </mxCell>
        <mxCell id="C-vyLk0tnHw3VtMMgP7b-28" value="" style="shape=partialRectangle;overflow=hidden;connectable=0;fillColor=none;top=0;left=0;bottom=0;right=0;" parent="C-vyLk0tnHw3VtMMgP7b-27" vertex="1">
          <mxGeometry width="30" height="30" as="geometry">
            <mxRectangle width="30" height="30" as="alternateBounds" />
          </mxGeometry>
        </mxCell>
        <mxCell id="C-vyLk0tnHw3VtMMgP7b-29" value="nombre VARCHAR(50) NOT NULL" style="shape=partialRectangle;overflow=hidden;connectable=0;fillColor=none;top=0;left=0;bottom=0;right=0;align=left;spacingLeft=6;" parent="C-vyLk0tnHw3VtMMgP7b-27" vertex="1">
          <mxGeometry x="30" width="229" height="30" as="geometry">
            <mxRectangle width="229" height="30" as="alternateBounds" />
          </mxGeometry>
        </mxCell>
        <mxCell id="0-cWZs_t28dN7DWukg68-2" value="" style="shape=tableRow;horizontal=0;startSize=0;swimlaneHead=0;swimlaneBody=0;fillColor=none;collapsible=0;dropTarget=0;points=[[0,0.5],[1,0.5]];portConstraint=eastwest;top=0;left=0;right=0;bottom=0;" vertex="1" parent="C-vyLk0tnHw3VtMMgP7b-23">
          <mxGeometry y="90" width="259" height="30" as="geometry" />
        </mxCell>
        <mxCell id="0-cWZs_t28dN7DWukg68-3" value="" style="shape=partialRectangle;connectable=0;fillColor=none;top=0;left=0;bottom=0;right=0;editable=1;overflow=hidden;" vertex="1" parent="0-cWZs_t28dN7DWukg68-2">
          <mxGeometry width="30" height="30" as="geometry">
            <mxRectangle width="30" height="30" as="alternateBounds" />
          </mxGeometry>
        </mxCell>
        <mxCell id="0-cWZs_t28dN7DWukg68-4" value="apellido VARCHAR(50) NOT NULL" style="shape=partialRectangle;connectable=0;fillColor=none;top=0;left=0;bottom=0;right=0;align=left;spacingLeft=6;overflow=hidden;" vertex="1" parent="0-cWZs_t28dN7DWukg68-2">
          <mxGeometry x="30" width="229" height="30" as="geometry">
            <mxRectangle width="229" height="30" as="alternateBounds" />
          </mxGeometry>
        </mxCell>
        <mxCell id="0-cWZs_t28dN7DWukg68-6" value="" style="shape=tableRow;horizontal=0;startSize=0;swimlaneHead=0;swimlaneBody=0;fillColor=none;collapsible=0;dropTarget=0;points=[[0,0.5],[1,0.5]];portConstraint=eastwest;top=0;left=0;right=0;bottom=0;" vertex="1" parent="C-vyLk0tnHw3VtMMgP7b-23">
          <mxGeometry y="120" width="259" height="30" as="geometry" />
        </mxCell>
        <mxCell id="0-cWZs_t28dN7DWukg68-7" value="" style="shape=partialRectangle;connectable=0;fillColor=none;top=0;left=0;bottom=0;right=0;editable=1;overflow=hidden;" vertex="1" parent="0-cWZs_t28dN7DWukg68-6">
          <mxGeometry width="30" height="30" as="geometry">
            <mxRectangle width="30" height="30" as="alternateBounds" />
          </mxGeometry>
        </mxCell>
        <mxCell id="0-cWZs_t28dN7DWukg68-8" value="correo VARCHAR(255) NOT NULL" style="shape=partialRectangle;connectable=0;fillColor=none;top=0;left=0;bottom=0;right=0;align=left;spacingLeft=6;overflow=hidden;" vertex="1" parent="0-cWZs_t28dN7DWukg68-6">
          <mxGeometry x="30" width="229" height="30" as="geometry">
            <mxRectangle width="229" height="30" as="alternateBounds" />
          </mxGeometry>
        </mxCell>
        <mxCell id="0-cWZs_t28dN7DWukg68-14" value="" style="shape=tableRow;horizontal=0;startSize=0;swimlaneHead=0;swimlaneBody=0;fillColor=none;collapsible=0;dropTarget=0;points=[[0,0.5],[1,0.5]];portConstraint=eastwest;top=0;left=0;right=0;bottom=0;" vertex="1" parent="C-vyLk0tnHw3VtMMgP7b-23">
          <mxGeometry y="150" width="259" height="30" as="geometry" />
        </mxCell>
        <mxCell id="0-cWZs_t28dN7DWukg68-15" value="" style="shape=partialRectangle;connectable=0;fillColor=none;top=0;left=0;bottom=0;right=0;editable=1;overflow=hidden;" vertex="1" parent="0-cWZs_t28dN7DWukg68-14">
          <mxGeometry width="30" height="30" as="geometry">
            <mxRectangle width="30" height="30" as="alternateBounds" />
          </mxGeometry>
        </mxCell>
        <mxCell id="0-cWZs_t28dN7DWukg68-16" value="contrasena VARCHAR(50) NOT NULL" style="shape=partialRectangle;connectable=0;fillColor=none;top=0;left=0;bottom=0;right=0;align=left;spacingLeft=6;overflow=hidden;" vertex="1" parent="0-cWZs_t28dN7DWukg68-14">
          <mxGeometry x="30" width="229" height="30" as="geometry">
            <mxRectangle width="229" height="30" as="alternateBounds" />
          </mxGeometry>
        </mxCell>
        <mxCell id="0-cWZs_t28dN7DWukg68-22" value="" style="shape=tableRow;horizontal=0;startSize=0;swimlaneHead=0;swimlaneBody=0;fillColor=none;collapsible=0;dropTarget=0;points=[[0,0.5],[1,0.5]];portConstraint=eastwest;top=0;left=0;right=0;bottom=0;" vertex="1" parent="C-vyLk0tnHw3VtMMgP7b-23">
          <mxGeometry y="180" width="259" height="30" as="geometry" />
        </mxCell>
        <mxCell id="0-cWZs_t28dN7DWukg68-23" value="" style="shape=partialRectangle;connectable=0;fillColor=none;top=0;left=0;bottom=0;right=0;editable=1;overflow=hidden;" vertex="1" parent="0-cWZs_t28dN7DWukg68-22">
          <mxGeometry width="30" height="30" as="geometry">
            <mxRectangle width="30" height="30" as="alternateBounds" />
          </mxGeometry>
        </mxCell>
        <mxCell id="0-cWZs_t28dN7DWukg68-24" value="fecha_creacion TIMESTAMP NOT NULL" style="shape=partialRectangle;connectable=0;fillColor=none;top=0;left=0;bottom=0;right=0;align=left;spacingLeft=6;overflow=hidden;" vertex="1" parent="0-cWZs_t28dN7DWukg68-22">
          <mxGeometry x="30" width="229" height="30" as="geometry">
            <mxRectangle width="229" height="30" as="alternateBounds" />
          </mxGeometry>
        </mxCell>
        <mxCell id="0-cWZs_t28dN7DWukg68-26" value="" style="shape=tableRow;horizontal=0;startSize=0;swimlaneHead=0;swimlaneBody=0;fillColor=none;collapsible=0;dropTarget=0;points=[[0,0.5],[1,0.5]];portConstraint=eastwest;top=0;left=0;right=0;bottom=0;" vertex="1" parent="C-vyLk0tnHw3VtMMgP7b-23">
          <mxGeometry y="210" width="259" height="30" as="geometry" />
        </mxCell>
        <mxCell id="0-cWZs_t28dN7DWukg68-27" value="" style="shape=partialRectangle;connectable=0;fillColor=none;top=0;left=0;bottom=0;right=0;editable=1;overflow=hidden;" vertex="1" parent="0-cWZs_t28dN7DWukg68-26">
          <mxGeometry width="30" height="30" as="geometry">
            <mxRectangle width="30" height="30" as="alternateBounds" />
          </mxGeometry>
        </mxCell>
        <mxCell id="0-cWZs_t28dN7DWukg68-28" value="image VARCHAR NOT NULL" style="shape=partialRectangle;connectable=0;fillColor=none;top=0;left=0;bottom=0;right=0;align=left;spacingLeft=6;overflow=hidden;" vertex="1" parent="0-cWZs_t28dN7DWukg68-26">
          <mxGeometry x="30" width="229" height="30" as="geometry">
            <mxRectangle width="229" height="30" as="alternateBounds" />
          </mxGeometry>
        </mxCell>
        <mxCell id="0-cWZs_t28dN7DWukg68-18" value="" style="shape=tableRow;horizontal=0;startSize=0;swimlaneHead=0;swimlaneBody=0;fillColor=none;collapsible=0;dropTarget=0;points=[[0,0.5],[1,0.5]];portConstraint=eastwest;top=0;left=0;right=0;bottom=0;" vertex="1" parent="C-vyLk0tnHw3VtMMgP7b-23">
          <mxGeometry y="240" width="259" height="30" as="geometry" />
        </mxCell>
        <mxCell id="0-cWZs_t28dN7DWukg68-19" value="FK1" style="shape=partialRectangle;connectable=0;fillColor=none;top=0;left=0;bottom=0;right=0;editable=1;overflow=hidden;" vertex="1" parent="0-cWZs_t28dN7DWukg68-18">
          <mxGeometry width="30" height="30" as="geometry">
            <mxRectangle width="30" height="30" as="alternateBounds" />
          </mxGeometry>
        </mxCell>
        <mxCell id="0-cWZs_t28dN7DWukg68-20" value="rol_id INTEGER NOT NULL" style="shape=partialRectangle;connectable=0;fillColor=none;top=0;left=0;bottom=0;right=0;align=left;spacingLeft=6;overflow=hidden;" vertex="1" parent="0-cWZs_t28dN7DWukg68-18">
          <mxGeometry x="30" width="229" height="30" as="geometry">
            <mxRectangle width="229" height="30" as="alternateBounds" />
          </mxGeometry>
        </mxCell>
        <mxCell id="0-cWZs_t28dN7DWukg68-30" value="" style="shape=tableRow;horizontal=0;startSize=0;swimlaneHead=0;swimlaneBody=0;fillColor=none;collapsible=0;dropTarget=0;points=[[0,0.5],[1,0.5]];portConstraint=eastwest;top=0;left=0;right=0;bottom=0;" vertex="1" parent="C-vyLk0tnHw3VtMMgP7b-23">
          <mxGeometry y="270" width="259" height="30" as="geometry" />
        </mxCell>
        <mxCell id="0-cWZs_t28dN7DWukg68-31" value="FK2" style="shape=partialRectangle;connectable=0;fillColor=none;top=0;left=0;bottom=0;right=0;editable=1;overflow=hidden;" vertex="1" parent="0-cWZs_t28dN7DWukg68-30">
          <mxGeometry width="30" height="30" as="geometry">
            <mxRectangle width="30" height="30" as="alternateBounds" />
          </mxGeometry>
        </mxCell>
        <mxCell id="0-cWZs_t28dN7DWukg68-32" value="estado_id INTEGER NOT NULL" style="shape=partialRectangle;connectable=0;fillColor=none;top=0;left=0;bottom=0;right=0;align=left;spacingLeft=6;overflow=hidden;" vertex="1" parent="0-cWZs_t28dN7DWukg68-30">
          <mxGeometry x="30" width="229" height="30" as="geometry">
            <mxRectangle width="229" height="30" as="alternateBounds" />
          </mxGeometry>
        </mxCell>
        <mxCell id="0-cWZs_t28dN7DWukg68-33" value="" style="edgeStyle=entityRelationEdgeStyle;fontSize=12;html=1;endArrow=ERoneToMany;rounded=0;entryX=1;entryY=0.5;entryDx=0;entryDy=0;exitX=0;exitY=0.5;exitDx=0;exitDy=0;" edge="1" parent="1" source="C-vyLk0tnHw3VtMMgP7b-3" target="0-cWZs_t28dN7DWukg68-18">
          <mxGeometry width="100" height="100" relative="1" as="geometry">
            <mxPoint x="470" y="390" as="sourcePoint" />
            <mxPoint x="570" y="290" as="targetPoint" />
          </mxGeometry>
        </mxCell>
        <mxCell id="0-cWZs_t28dN7DWukg68-34" value="" style="edgeStyle=entityRelationEdgeStyle;fontSize=12;html=1;endArrow=ERoneToMany;rounded=0;entryX=1;entryY=0.5;entryDx=0;entryDy=0;exitX=0;exitY=0.5;exitDx=0;exitDy=0;" edge="1" parent="1" source="C-vyLk0tnHw3VtMMgP7b-14" target="0-cWZs_t28dN7DWukg68-30">
          <mxGeometry width="100" height="100" relative="1" as="geometry">
            <mxPoint x="560" y="175" as="sourcePoint" />
            <mxPoint x="439" y="385" as="targetPoint" />
          </mxGeometry>
        </mxCell>
        <mxCell id="0-cWZs_t28dN7DWukg68-35" value="Cuentas" style="shape=table;startSize=30;container=1;collapsible=1;childLayout=tableLayout;fixedRows=1;rowLines=0;fontStyle=1;align=center;resizeLast=1;" vertex="1" parent="1">
          <mxGeometry x="-250" y="160" width="274.5" height="210" as="geometry" />
        </mxCell>
        <mxCell id="0-cWZs_t28dN7DWukg68-36" value="" style="shape=partialRectangle;collapsible=0;dropTarget=0;pointerEvents=0;fillColor=none;points=[[0,0.5],[1,0.5]];portConstraint=eastwest;top=0;left=0;right=0;bottom=1;" vertex="1" parent="0-cWZs_t28dN7DWukg68-35">
          <mxGeometry y="30" width="274.5" height="30" as="geometry" />
        </mxCell>
        <mxCell id="0-cWZs_t28dN7DWukg68-37" value="PK" style="shape=partialRectangle;overflow=hidden;connectable=0;fillColor=none;top=0;left=0;bottom=0;right=0;fontStyle=1;" vertex="1" parent="0-cWZs_t28dN7DWukg68-36">
          <mxGeometry width="30" height="30" as="geometry">
            <mxRectangle width="30" height="30" as="alternateBounds" />
          </mxGeometry>
        </mxCell>
        <mxCell id="0-cWZs_t28dN7DWukg68-38" value="ID INTEGER NOT NULL " style="shape=partialRectangle;overflow=hidden;connectable=0;fillColor=none;top=0;left=0;bottom=0;right=0;align=left;spacingLeft=6;fontStyle=5;" vertex="1" parent="0-cWZs_t28dN7DWukg68-36">
          <mxGeometry x="30" width="244.5" height="30" as="geometry">
            <mxRectangle width="244.5" height="30" as="alternateBounds" />
          </mxGeometry>
        </mxCell>
        <mxCell id="0-cWZs_t28dN7DWukg68-39" value="" style="shape=partialRectangle;collapsible=0;dropTarget=0;pointerEvents=0;fillColor=none;points=[[0,0.5],[1,0.5]];portConstraint=eastwest;top=0;left=0;right=0;bottom=0;" vertex="1" parent="0-cWZs_t28dN7DWukg68-35">
          <mxGeometry y="60" width="274.5" height="30" as="geometry" />
        </mxCell>
        <mxCell id="0-cWZs_t28dN7DWukg68-40" value="" style="shape=partialRectangle;overflow=hidden;connectable=0;fillColor=none;top=0;left=0;bottom=0;right=0;" vertex="1" parent="0-cWZs_t28dN7DWukg68-39">
          <mxGeometry width="30" height="30" as="geometry">
            <mxRectangle width="30" height="30" as="alternateBounds" />
          </mxGeometry>
        </mxCell>
        <mxCell id="0-cWZs_t28dN7DWukg68-41" value="numero_cuenta VARCHAR(50) NOT NULL" style="shape=partialRectangle;overflow=hidden;connectable=0;fillColor=none;top=0;left=0;bottom=0;right=0;align=left;spacingLeft=6;" vertex="1" parent="0-cWZs_t28dN7DWukg68-39">
          <mxGeometry x="30" width="244.5" height="30" as="geometry">
            <mxRectangle width="244.5" height="30" as="alternateBounds" />
          </mxGeometry>
        </mxCell>
        <mxCell id="0-cWZs_t28dN7DWukg68-51" value="" style="shape=tableRow;horizontal=0;startSize=0;swimlaneHead=0;swimlaneBody=0;fillColor=none;collapsible=0;dropTarget=0;points=[[0,0.5],[1,0.5]];portConstraint=eastwest;top=0;left=0;right=0;bottom=0;" vertex="1" parent="0-cWZs_t28dN7DWukg68-35">
          <mxGeometry y="90" width="274.5" height="30" as="geometry" />
        </mxCell>
        <mxCell id="0-cWZs_t28dN7DWukg68-52" value="" style="shape=partialRectangle;connectable=0;fillColor=none;top=0;left=0;bottom=0;right=0;editable=1;overflow=hidden;" vertex="1" parent="0-cWZs_t28dN7DWukg68-51">
          <mxGeometry width="30" height="30" as="geometry">
            <mxRectangle width="30" height="30" as="alternateBounds" />
          </mxGeometry>
        </mxCell>
        <mxCell id="0-cWZs_t28dN7DWukg68-53" value="fecha_creacion TIMESTAMP NOT NULL" style="shape=partialRectangle;connectable=0;fillColor=none;top=0;left=0;bottom=0;right=0;align=left;spacingLeft=6;overflow=hidden;" vertex="1" parent="0-cWZs_t28dN7DWukg68-51">
          <mxGeometry x="30" width="244.5" height="30" as="geometry">
            <mxRectangle width="244.5" height="30" as="alternateBounds" />
          </mxGeometry>
        </mxCell>
        <mxCell id="0-cWZs_t28dN7DWukg68-54" value="" style="shape=tableRow;horizontal=0;startSize=0;swimlaneHead=0;swimlaneBody=0;fillColor=none;collapsible=0;dropTarget=0;points=[[0,0.5],[1,0.5]];portConstraint=eastwest;top=0;left=0;right=0;bottom=0;" vertex="1" parent="0-cWZs_t28dN7DWukg68-35">
          <mxGeometry y="120" width="274.5" height="30" as="geometry" />
        </mxCell>
        <mxCell id="0-cWZs_t28dN7DWukg68-55" value="" style="shape=partialRectangle;connectable=0;fillColor=none;top=0;left=0;bottom=0;right=0;editable=1;overflow=hidden;" vertex="1" parent="0-cWZs_t28dN7DWukg68-54">
          <mxGeometry width="30" height="30" as="geometry">
            <mxRectangle width="30" height="30" as="alternateBounds" />
          </mxGeometry>
        </mxCell>
        <mxCell id="0-cWZs_t28dN7DWukg68-56" value="saldo DOUBLE NOT NULL" style="shape=partialRectangle;connectable=0;fillColor=none;top=0;left=0;bottom=0;right=0;align=left;spacingLeft=6;overflow=hidden;" vertex="1" parent="0-cWZs_t28dN7DWukg68-54">
          <mxGeometry x="30" width="244.5" height="30" as="geometry">
            <mxRectangle width="244.5" height="30" as="alternateBounds" />
          </mxGeometry>
        </mxCell>
        <mxCell id="0-cWZs_t28dN7DWukg68-63" value="" style="shape=tableRow;horizontal=0;startSize=0;swimlaneHead=0;swimlaneBody=0;fillColor=none;collapsible=0;dropTarget=0;points=[[0,0.5],[1,0.5]];portConstraint=eastwest;top=0;left=0;right=0;bottom=0;" vertex="1" parent="0-cWZs_t28dN7DWukg68-35">
          <mxGeometry y="150" width="274.5" height="30" as="geometry" />
        </mxCell>
        <mxCell id="0-cWZs_t28dN7DWukg68-64" value="" style="shape=partialRectangle;connectable=0;fillColor=none;top=0;left=0;bottom=0;right=0;editable=1;overflow=hidden;" vertex="1" parent="0-cWZs_t28dN7DWukg68-63">
          <mxGeometry width="30" height="30" as="geometry">
            <mxRectangle width="30" height="30" as="alternateBounds" />
          </mxGeometry>
        </mxCell>
        <mxCell id="0-cWZs_t28dN7DWukg68-65" value="meta_ahorro DOUBLE " style="shape=partialRectangle;connectable=0;fillColor=none;top=0;left=0;bottom=0;right=0;align=left;spacingLeft=6;overflow=hidden;" vertex="1" parent="0-cWZs_t28dN7DWukg68-63">
          <mxGeometry x="30" width="244.5" height="30" as="geometry">
            <mxRectangle width="244.5" height="30" as="alternateBounds" />
          </mxGeometry>
        </mxCell>
        <mxCell id="0-cWZs_t28dN7DWukg68-57" value="" style="shape=tableRow;horizontal=0;startSize=0;swimlaneHead=0;swimlaneBody=0;fillColor=none;collapsible=0;dropTarget=0;points=[[0,0.5],[1,0.5]];portConstraint=eastwest;top=0;left=0;right=0;bottom=0;" vertex="1" parent="0-cWZs_t28dN7DWukg68-35">
          <mxGeometry y="180" width="274.5" height="30" as="geometry" />
        </mxCell>
        <mxCell id="0-cWZs_t28dN7DWukg68-58" value="FK1" style="shape=partialRectangle;connectable=0;fillColor=none;top=0;left=0;bottom=0;right=0;editable=1;overflow=hidden;" vertex="1" parent="0-cWZs_t28dN7DWukg68-57">
          <mxGeometry width="30" height="30" as="geometry">
            <mxRectangle width="30" height="30" as="alternateBounds" />
          </mxGeometry>
        </mxCell>
        <mxCell id="0-cWZs_t28dN7DWukg68-59" value="usuario_id INTEGER NOT NULL" style="shape=partialRectangle;connectable=0;fillColor=none;top=0;left=0;bottom=0;right=0;align=left;spacingLeft=6;overflow=hidden;" vertex="1" parent="0-cWZs_t28dN7DWukg68-57">
          <mxGeometry x="30" width="244.5" height="30" as="geometry">
            <mxRectangle width="244.5" height="30" as="alternateBounds" />
          </mxGeometry>
        </mxCell>
        <mxCell id="0-cWZs_t28dN7DWukg68-66" value="" style="edgeStyle=entityRelationEdgeStyle;fontSize=12;html=1;endArrow=ERoneToMany;rounded=0;entryX=1.003;entryY=0.289;entryDx=0;entryDy=0;entryPerimeter=0;exitX=0;exitY=0.5;exitDx=0;exitDy=0;" edge="1" parent="1" source="C-vyLk0tnHw3VtMMgP7b-24" target="0-cWZs_t28dN7DWukg68-57">
          <mxGeometry width="100" height="100" relative="1" as="geometry">
            <mxPoint x="-10" y="330" as="sourcePoint" />
            <mxPoint x="90" y="230" as="targetPoint" />
          </mxGeometry>
        </mxCell>
        <mxCell id="0-cWZs_t28dN7DWukg68-67" value="Transacciones" style="shape=table;startSize=30;container=1;collapsible=1;childLayout=tableLayout;fixedRows=1;rowLines=0;fontStyle=1;align=center;resizeLast=1;" vertex="1" parent="1">
          <mxGeometry x="-680" y="80" width="274.5" height="300" as="geometry" />
        </mxCell>
        <mxCell id="0-cWZs_t28dN7DWukg68-68" value="" style="shape=partialRectangle;collapsible=0;dropTarget=0;pointerEvents=0;fillColor=none;points=[[0,0.5],[1,0.5]];portConstraint=eastwest;top=0;left=0;right=0;bottom=1;" vertex="1" parent="0-cWZs_t28dN7DWukg68-67">
          <mxGeometry y="30" width="274.5" height="30" as="geometry" />
        </mxCell>
        <mxCell id="0-cWZs_t28dN7DWukg68-69" value="PK" style="shape=partialRectangle;overflow=hidden;connectable=0;fillColor=none;top=0;left=0;bottom=0;right=0;fontStyle=1;" vertex="1" parent="0-cWZs_t28dN7DWukg68-68">
          <mxGeometry width="30" height="30" as="geometry">
            <mxRectangle width="30" height="30" as="alternateBounds" />
          </mxGeometry>
        </mxCell>
        <mxCell id="0-cWZs_t28dN7DWukg68-70" value="ID INTEGER NOT NULL " style="shape=partialRectangle;overflow=hidden;connectable=0;fillColor=none;top=0;left=0;bottom=0;right=0;align=left;spacingLeft=6;fontStyle=5;" vertex="1" parent="0-cWZs_t28dN7DWukg68-68">
          <mxGeometry x="30" width="244.5" height="30" as="geometry">
            <mxRectangle width="244.5" height="30" as="alternateBounds" />
          </mxGeometry>
        </mxCell>
        <mxCell id="0-cWZs_t28dN7DWukg68-71" value="" style="shape=partialRectangle;collapsible=0;dropTarget=0;pointerEvents=0;fillColor=none;points=[[0,0.5],[1,0.5]];portConstraint=eastwest;top=0;left=0;right=0;bottom=0;" vertex="1" parent="0-cWZs_t28dN7DWukg68-67">
          <mxGeometry y="60" width="274.5" height="30" as="geometry" />
        </mxCell>
        <mxCell id="0-cWZs_t28dN7DWukg68-72" value="" style="shape=partialRectangle;overflow=hidden;connectable=0;fillColor=none;top=0;left=0;bottom=0;right=0;" vertex="1" parent="0-cWZs_t28dN7DWukg68-71">
          <mxGeometry width="30" height="30" as="geometry">
            <mxRectangle width="30" height="30" as="alternateBounds" />
          </mxGeometry>
        </mxCell>
        <mxCell id="0-cWZs_t28dN7DWukg68-73" value="numero_cuenta VARCHAR(50) NOT NULL" style="shape=partialRectangle;overflow=hidden;connectable=0;fillColor=none;top=0;left=0;bottom=0;right=0;align=left;spacingLeft=6;" vertex="1" parent="0-cWZs_t28dN7DWukg68-71">
          <mxGeometry x="30" width="244.5" height="30" as="geometry">
            <mxRectangle width="244.5" height="30" as="alternateBounds" />
          </mxGeometry>
        </mxCell>
        <mxCell id="0-cWZs_t28dN7DWukg68-74" value="" style="shape=tableRow;horizontal=0;startSize=0;swimlaneHead=0;swimlaneBody=0;fillColor=none;collapsible=0;dropTarget=0;points=[[0,0.5],[1,0.5]];portConstraint=eastwest;top=0;left=0;right=0;bottom=0;" vertex="1" parent="0-cWZs_t28dN7DWukg68-67">
          <mxGeometry y="90" width="274.5" height="30" as="geometry" />
        </mxCell>
        <mxCell id="0-cWZs_t28dN7DWukg68-75" value="" style="shape=partialRectangle;connectable=0;fillColor=none;top=0;left=0;bottom=0;right=0;editable=1;overflow=hidden;" vertex="1" parent="0-cWZs_t28dN7DWukg68-74">
          <mxGeometry width="30" height="30" as="geometry">
            <mxRectangle width="30" height="30" as="alternateBounds" />
          </mxGeometry>
        </mxCell>
        <mxCell id="0-cWZs_t28dN7DWukg68-76" value="apellido VARCHAR(50) NOT NULL" style="shape=partialRectangle;connectable=0;fillColor=none;top=0;left=0;bottom=0;right=0;align=left;spacingLeft=6;overflow=hidden;" vertex="1" parent="0-cWZs_t28dN7DWukg68-74">
          <mxGeometry x="30" width="244.5" height="30" as="geometry">
            <mxRectangle width="244.5" height="30" as="alternateBounds" />
          </mxGeometry>
        </mxCell>
        <mxCell id="0-cWZs_t28dN7DWukg68-77" value="" style="shape=tableRow;horizontal=0;startSize=0;swimlaneHead=0;swimlaneBody=0;fillColor=none;collapsible=0;dropTarget=0;points=[[0,0.5],[1,0.5]];portConstraint=eastwest;top=0;left=0;right=0;bottom=0;" vertex="1" parent="0-cWZs_t28dN7DWukg68-67">
          <mxGeometry y="120" width="274.5" height="30" as="geometry" />
        </mxCell>
        <mxCell id="0-cWZs_t28dN7DWukg68-78" value="" style="shape=partialRectangle;connectable=0;fillColor=none;top=0;left=0;bottom=0;right=0;editable=1;overflow=hidden;" vertex="1" parent="0-cWZs_t28dN7DWukg68-77">
          <mxGeometry width="30" height="30" as="geometry">
            <mxRectangle width="30" height="30" as="alternateBounds" />
          </mxGeometry>
        </mxCell>
        <mxCell id="0-cWZs_t28dN7DWukg68-79" value="fecha_creacion TIMESTAMP NOT NULL" style="shape=partialRectangle;connectable=0;fillColor=none;top=0;left=0;bottom=0;right=0;align=left;spacingLeft=6;overflow=hidden;" vertex="1" parent="0-cWZs_t28dN7DWukg68-77">
          <mxGeometry x="30" width="244.5" height="30" as="geometry">
            <mxRectangle width="244.5" height="30" as="alternateBounds" />
          </mxGeometry>
        </mxCell>
        <mxCell id="0-cWZs_t28dN7DWukg68-80" value="" style="shape=tableRow;horizontal=0;startSize=0;swimlaneHead=0;swimlaneBody=0;fillColor=none;collapsible=0;dropTarget=0;points=[[0,0.5],[1,0.5]];portConstraint=eastwest;top=0;left=0;right=0;bottom=0;" vertex="1" parent="0-cWZs_t28dN7DWukg68-67">
          <mxGeometry y="150" width="274.5" height="30" as="geometry" />
        </mxCell>
        <mxCell id="0-cWZs_t28dN7DWukg68-81" value="" style="shape=partialRectangle;connectable=0;fillColor=none;top=0;left=0;bottom=0;right=0;editable=1;overflow=hidden;" vertex="1" parent="0-cWZs_t28dN7DWukg68-80">
          <mxGeometry width="30" height="30" as="geometry">
            <mxRectangle width="30" height="30" as="alternateBounds" />
          </mxGeometry>
        </mxCell>
        <mxCell id="0-cWZs_t28dN7DWukg68-82" value="saldo DOUBLE NOT NULL" style="shape=partialRectangle;connectable=0;fillColor=none;top=0;left=0;bottom=0;right=0;align=left;spacingLeft=6;overflow=hidden;" vertex="1" parent="0-cWZs_t28dN7DWukg68-80">
          <mxGeometry x="30" width="244.5" height="30" as="geometry">
            <mxRectangle width="244.5" height="30" as="alternateBounds" />
          </mxGeometry>
        </mxCell>
        <mxCell id="0-cWZs_t28dN7DWukg68-83" value="" style="shape=tableRow;horizontal=0;startSize=0;swimlaneHead=0;swimlaneBody=0;fillColor=none;collapsible=0;dropTarget=0;points=[[0,0.5],[1,0.5]];portConstraint=eastwest;top=0;left=0;right=0;bottom=0;" vertex="1" parent="0-cWZs_t28dN7DWukg68-67">
          <mxGeometry y="180" width="274.5" height="30" as="geometry" />
        </mxCell>
        <mxCell id="0-cWZs_t28dN7DWukg68-84" value="" style="shape=partialRectangle;connectable=0;fillColor=none;top=0;left=0;bottom=0;right=0;editable=1;overflow=hidden;" vertex="1" parent="0-cWZs_t28dN7DWukg68-83">
          <mxGeometry width="30" height="30" as="geometry">
            <mxRectangle width="30" height="30" as="alternateBounds" />
          </mxGeometry>
        </mxCell>
        <mxCell id="0-cWZs_t28dN7DWukg68-85" value="meta_ahorro DOUBLE " style="shape=partialRectangle;connectable=0;fillColor=none;top=0;left=0;bottom=0;right=0;align=left;spacingLeft=6;overflow=hidden;" vertex="1" parent="0-cWZs_t28dN7DWukg68-83">
          <mxGeometry x="30" width="244.5" height="30" as="geometry">
            <mxRectangle width="244.5" height="30" as="alternateBounds" />
          </mxGeometry>
        </mxCell>
        <mxCell id="0-cWZs_t28dN7DWukg68-102" value="" style="shape=tableRow;horizontal=0;startSize=0;swimlaneHead=0;swimlaneBody=0;fillColor=none;collapsible=0;dropTarget=0;points=[[0,0.5],[1,0.5]];portConstraint=eastwest;top=0;left=0;right=0;bottom=0;" vertex="1" parent="0-cWZs_t28dN7DWukg68-67">
          <mxGeometry y="210" width="274.5" height="30" as="geometry" />
        </mxCell>
        <mxCell id="0-cWZs_t28dN7DWukg68-103" value="FK1" style="shape=partialRectangle;connectable=0;fillColor=none;top=0;left=0;bottom=0;right=0;editable=1;overflow=hidden;" vertex="1" parent="0-cWZs_t28dN7DWukg68-102">
          <mxGeometry width="30" height="30" as="geometry">
            <mxRectangle width="30" height="30" as="alternateBounds" />
          </mxGeometry>
        </mxCell>
        <mxCell id="0-cWZs_t28dN7DWukg68-104" value="tipo_transaccion_id INTEGER NOT NULL" style="shape=partialRectangle;connectable=0;fillColor=none;top=0;left=0;bottom=0;right=0;align=left;spacingLeft=6;overflow=hidden;" vertex="1" parent="0-cWZs_t28dN7DWukg68-102">
          <mxGeometry x="30" width="244.5" height="30" as="geometry">
            <mxRectangle width="244.5" height="30" as="alternateBounds" />
          </mxGeometry>
        </mxCell>
        <mxCell id="0-cWZs_t28dN7DWukg68-86" value="" style="shape=tableRow;horizontal=0;startSize=0;swimlaneHead=0;swimlaneBody=0;fillColor=none;collapsible=0;dropTarget=0;points=[[0,0.5],[1,0.5]];portConstraint=eastwest;top=0;left=0;right=0;bottom=0;" vertex="1" parent="0-cWZs_t28dN7DWukg68-67">
          <mxGeometry y="240" width="274.5" height="30" as="geometry" />
        </mxCell>
        <mxCell id="0-cWZs_t28dN7DWukg68-87" value="FK2" style="shape=partialRectangle;connectable=0;fillColor=none;top=0;left=0;bottom=0;right=0;editable=1;overflow=hidden;" vertex="1" parent="0-cWZs_t28dN7DWukg68-86">
          <mxGeometry width="30" height="30" as="geometry">
            <mxRectangle width="30" height="30" as="alternateBounds" />
          </mxGeometry>
        </mxCell>
        <mxCell id="0-cWZs_t28dN7DWukg68-88" value="cuenta_origen_id INTEGER NOT NULL" style="shape=partialRectangle;connectable=0;fillColor=none;top=0;left=0;bottom=0;right=0;align=left;spacingLeft=6;overflow=hidden;" vertex="1" parent="0-cWZs_t28dN7DWukg68-86">
          <mxGeometry x="30" width="244.5" height="30" as="geometry">
            <mxRectangle width="244.5" height="30" as="alternateBounds" />
          </mxGeometry>
        </mxCell>
        <mxCell id="0-cWZs_t28dN7DWukg68-99" value="" style="shape=tableRow;horizontal=0;startSize=0;swimlaneHead=0;swimlaneBody=0;fillColor=none;collapsible=0;dropTarget=0;points=[[0,0.5],[1,0.5]];portConstraint=eastwest;top=0;left=0;right=0;bottom=0;" vertex="1" parent="0-cWZs_t28dN7DWukg68-67">
          <mxGeometry y="270" width="274.5" height="30" as="geometry" />
        </mxCell>
        <mxCell id="0-cWZs_t28dN7DWukg68-100" value="FK3" style="shape=partialRectangle;connectable=0;fillColor=none;top=0;left=0;bottom=0;right=0;editable=1;overflow=hidden;" vertex="1" parent="0-cWZs_t28dN7DWukg68-99">
          <mxGeometry width="30" height="30" as="geometry">
            <mxRectangle width="30" height="30" as="alternateBounds" />
          </mxGeometry>
        </mxCell>
        <mxCell id="0-cWZs_t28dN7DWukg68-101" value="cuenta_destino_id INTEGER NOT NULL" style="shape=partialRectangle;connectable=0;fillColor=none;top=0;left=0;bottom=0;right=0;align=left;spacingLeft=6;overflow=hidden;" vertex="1" parent="0-cWZs_t28dN7DWukg68-99">
          <mxGeometry x="30" width="244.5" height="30" as="geometry">
            <mxRectangle width="244.5" height="30" as="alternateBounds" />
          </mxGeometry>
        </mxCell>
        <mxCell id="0-cWZs_t28dN7DWukg68-89" value="TiposTransacciones" style="shape=table;startSize=30;container=1;collapsible=1;childLayout=tableLayout;fixedRows=1;rowLines=0;fontStyle=1;align=center;resizeLast=1;" vertex="1" parent="1">
          <mxGeometry x="-1060" y="40" width="250" height="100" as="geometry" />
        </mxCell>
        <mxCell id="0-cWZs_t28dN7DWukg68-90" value="" style="shape=partialRectangle;collapsible=0;dropTarget=0;pointerEvents=0;fillColor=none;points=[[0,0.5],[1,0.5]];portConstraint=eastwest;top=0;left=0;right=0;bottom=1;" vertex="1" parent="0-cWZs_t28dN7DWukg68-89">
          <mxGeometry y="30" width="250" height="30" as="geometry" />
        </mxCell>
        <mxCell id="0-cWZs_t28dN7DWukg68-91" value="PK" style="shape=partialRectangle;overflow=hidden;connectable=0;fillColor=none;top=0;left=0;bottom=0;right=0;fontStyle=1;" vertex="1" parent="0-cWZs_t28dN7DWukg68-90">
          <mxGeometry width="30" height="30" as="geometry">
            <mxRectangle width="30" height="30" as="alternateBounds" />
          </mxGeometry>
        </mxCell>
        <mxCell id="0-cWZs_t28dN7DWukg68-92" value="ID INTEGER NOT NULL" style="shape=partialRectangle;overflow=hidden;connectable=0;fillColor=none;top=0;left=0;bottom=0;right=0;align=left;spacingLeft=6;fontStyle=5;" vertex="1" parent="0-cWZs_t28dN7DWukg68-90">
          <mxGeometry x="30" width="220" height="30" as="geometry">
            <mxRectangle width="220" height="30" as="alternateBounds" />
          </mxGeometry>
        </mxCell>
        <mxCell id="0-cWZs_t28dN7DWukg68-93" value="" style="shape=partialRectangle;collapsible=0;dropTarget=0;pointerEvents=0;fillColor=none;points=[[0,0.5],[1,0.5]];portConstraint=eastwest;top=0;left=0;right=0;bottom=0;" vertex="1" parent="0-cWZs_t28dN7DWukg68-89">
          <mxGeometry y="60" width="250" height="30" as="geometry" />
        </mxCell>
        <mxCell id="0-cWZs_t28dN7DWukg68-94" value="" style="shape=partialRectangle;overflow=hidden;connectable=0;fillColor=none;top=0;left=0;bottom=0;right=0;" vertex="1" parent="0-cWZs_t28dN7DWukg68-93">
          <mxGeometry width="30" height="30" as="geometry">
            <mxRectangle width="30" height="30" as="alternateBounds" />
          </mxGeometry>
        </mxCell>
        <mxCell id="0-cWZs_t28dN7DWukg68-95" value="nombre VARCHAR(50) NOT NULL" style="shape=partialRectangle;overflow=hidden;connectable=0;fillColor=none;top=0;left=0;bottom=0;right=0;align=left;spacingLeft=6;" vertex="1" parent="0-cWZs_t28dN7DWukg68-93">
          <mxGeometry x="30" width="220" height="30" as="geometry">
            <mxRectangle width="220" height="30" as="alternateBounds" />
          </mxGeometry>
        </mxCell>
        <mxCell id="0-cWZs_t28dN7DWukg68-105" value="" style="edgeStyle=entityRelationEdgeStyle;fontSize=12;html=1;endArrow=ERoneToMany;rounded=0;exitX=0;exitY=0.5;exitDx=0;exitDy=0;entryX=1;entryY=0.5;entryDx=0;entryDy=0;" edge="1" parent="1" source="0-cWZs_t28dN7DWukg68-36" target="0-cWZs_t28dN7DWukg68-86">
          <mxGeometry width="100" height="100" relative="1" as="geometry">
            <mxPoint x="-470" y="170" as="sourcePoint" />
            <mxPoint x="-370" y="70" as="targetPoint" />
          </mxGeometry>
        </mxCell>
        <mxCell id="0-cWZs_t28dN7DWukg68-106" value="" style="edgeStyle=entityRelationEdgeStyle;fontSize=12;html=1;endArrow=ERoneToMany;rounded=0;exitX=0;exitY=0.5;exitDx=0;exitDy=0;entryX=1;entryY=0.5;entryDx=0;entryDy=0;" edge="1" parent="1" source="0-cWZs_t28dN7DWukg68-36" target="0-cWZs_t28dN7DWukg68-99">
          <mxGeometry width="100" height="100" relative="1" as="geometry">
            <mxPoint x="-240" y="215" as="sourcePoint" />
            <mxPoint x="-395" y="345" as="targetPoint" />
          </mxGeometry>
        </mxCell>
        <mxCell id="0-cWZs_t28dN7DWukg68-107" value="" style="edgeStyle=entityRelationEdgeStyle;fontSize=12;html=1;endArrow=ERoneToMany;rounded=0;exitX=1;exitY=0.5;exitDx=0;exitDy=0;entryX=0;entryY=0.5;entryDx=0;entryDy=0;" edge="1" parent="1" source="0-cWZs_t28dN7DWukg68-90" target="0-cWZs_t28dN7DWukg68-102">
          <mxGeometry width="100" height="100" relative="1" as="geometry">
            <mxPoint x="-610" y="170" as="sourcePoint" />
            <mxPoint x="-510" y="70" as="targetPoint" />
          </mxGeometry>
        </mxCell>
      </root>
    </mxGraphModel>
  </diagram>
</mxfile>
